<svg id="Layer_1" data-name="Layer 1" xmlns="http://www.w3.org/2000/svg" viewBox="0 0 238.93 210.97"><defs><style>.cls-1{fill:#0e2e43;}</style></defs><path class="cls-1" d="M113.48,191.82V188.4q0-65.71,0-131.44a16.24,16.24,0,0,1,.31-3.69,5.88,5.88,0,0,1,11.54.78,31.4,31.4,0,0,1,.09,3.22q0,65.73,0,131.44a5.13,5.13,0,0,0,.33,2.87c2.76-2.38,5.44-4.67,8.1-7Q149.2,171.33,164.5,158c2-1.7,4.1-2.45,6.63-1.44a5.7,5.7,0,0,1,3.72,4.88c.3,2.56-1.06,4.36-2.91,6q-13.75,11.85-27.46,23.76-10,8.72-20.11,17.42c-3.59,3.1-6.13,3.13-9.65.08l-47.36-41c-.44-.38-.89-.75-1.3-1.16a5.93,5.93,0,0,1,7.81-8.93c4.27,3.55,8.42,7.24,12.62,10.88C95.33,176.09,104.16,183.74,113.48,191.82Z" transform="translate(0 0)"/><path class="cls-1" d="M119.57,0h111c1,0,2,0,3,.07a5.69,5.69,0,0,1,5.33,5.27,5.71,5.71,0,0,1-4.42,6.29,12.62,12.62,0,0,1-2.95.29H7.52c-5.26,0-8.29-3-7.35-7.25A5.7,5.7,0,0,1,5.33.08a29.77,29.77,0,0,1,3-.08Z" transform="translate(0 0)"/></svg>